<svg width="640" height="640" viewBox="0 0 640 640" fill="none" xmlns="http://www.w3.org/2000/svg">
<g clip-path="url(#clip0_38_8)">
<path d="M0 0C211.2 0 422.4 0 640 0C640 211.2 640 422.4 640 640C428.8 640 217.6 640 0 640C0 428.8 0 217.6 0 0Z" fill="black"/>
<path d="M309 81C310.249 81.3003 311.498 81.6007 312.785 81.9101C333.177 87.1266 351.138 98.3165 366 113C366.714 113.642 367.428 114.284 368.164 114.945C385.557 130.952 394.941 155.7 396.152 178.921C397.174 211.046 388.503 242.023 369 268C368.412 268.797 367.824 269.593 367.219 270.414C358.156 282.204 347.823 292.985 336 302C335.042 302.773 334.084 303.547 333.098 304.344C317.689 316.624 301.007 326.073 283 334C281.279 334.77 281.279 334.77 279.523 335.555C273.054 338.246 266.418 340.026 259.625 341.688C258.799 341.89 257.974 342.093 257.123 342.302C244.825 345.154 232.564 346.323 219.966 346.206C217.935 346.187 215.904 346.185 213.873 346.186C201.638 346.155 189.545 345.823 177.625 342.875C176.287 342.548 176.287 342.548 174.922 342.214C166.492 340.045 158.74 336.955 151 333C150.102 332.546 150.102 332.546 149.186 332.083C124.531 319.389 103.925 297.725 95.352 270.979C94.0095 266.362 92.9755 261.706 92 257C91.7744 256.031 91.5488 255.061 91.3164 254.062C84.748 222.172 95.4537 188.995 112.568 162.197C141.411 118.524 187.892 89.4866 238.805 78.9609C261.446 74.8192 286.791 74.9157 309 81Z" fill="#FDFDFD"/>
<path d="M264.961 124.477C269.556 127.91 273.977 132.561 276 138C277.047 147.597 276.961 155.462 271.41 163.703C269.896 166.169 269.399 168.154 269 171C272.018 173.531 275.112 175.717 278.438 177.813C282.808 180.719 285.989 183.71 289 188C289.487 188.625 289.975 189.25 290.477 189.895C294.38 195.946 294.464 202.007 294.5 209C294.509 210.388 294.509 210.388 294.519 211.805C294.207 228.916 285.431 242.11 273.914 254.188C259.025 268.357 237.317 276.414 216.962 276.301C204.925 275.982 192.555 271.666 183.688 263.313C173.227 251.827 169.277 240.139 169.656 224.672C170.625 214.329 175.156 206.392 181 198C183.28 195.221 183.28 195.221 182.879 192.266C181.827 188.357 179.985 185.195 177.938 181.75C173.873 174.472 172.576 169.485 174.711 161.262C176.799 154.809 179.929 149.394 184 144C184.614 143.179 185.227 142.358 185.859 141.512C203.914 120.327 240.207 109.624 264.961 124.477Z" fill="#050505"/>
<path d="M241.375 198.188C245.642 201.134 248.986 204.175 251 209C252.048 216.242 250.472 222.314 246.441 228.324C240.79 235.432 233.987 239.128 224.996 240.438C219.156 240.692 215.534 239.967 211 236C210.423 235.526 209.845 235.051 209.25 234.563C205.701 230.127 205.577 225.232 205.68 219.785C206.452 213.07 210.471 206.968 215.598 202.656C223.256 196.867 232.142 194.939 241.375 198.188Z" fill="#F9F9F9"/>
<path d="M230 140C234.367 142.144 237.557 144.772 240 149C241.025 154.001 240.401 157.922 237.812 162.313C234.843 166.544 231.269 169.154 227 172C214.176 173.37 214.176 173.37 209.25 170.25C205.607 166.607 204.697 163.751 204.625 158.625C204.732 153.59 205.538 150.826 209 147C215.608 140.675 220.917 138.932 230 140Z" fill="#F8F8F8"/>
</g>
<defs>
<clipPath id="clip0_38_8">
<rect width="640" height="640" rx="320" fill="white"/>
</clipPath>
</defs>
</svg>
