<svg xmlns="http://www.w3.org/2000/svg" width="24" height="24" fill="none"><path stroke="#fff" stroke-linecap="round" stroke-linejoin="round" stroke-width="1.5" d="M21 16.623V7.379a.759.759 0 0 0-.384-.656l-8.25-4.64a.73.73 0 0 0-.732 0l-8.25 4.64A.76.76 0 0 0 3 7.379v9.244a.76.76 0 0 0 .384.656l8.25 4.64a.73.73 0 0 0 .732 0l8.25-4.64a.76.76 0 0 0 .384-.656v0Z"/><path stroke="url(#a)" stroke-linecap="round" stroke-linejoin="round" stroke-width="1.5" d="M21 16.623V7.379a.759.759 0 0 0-.384-.656l-8.25-4.64a.73.73 0 0 0-.732 0l-8.25 4.64A.76.76 0 0 0 3 7.379v9.244a.76.76 0 0 0 .384.656l8.25 4.64a.73.73 0 0 0 .732 0l8.25-4.64a.76.76 0 0 0 .384-.656v0Z"/><path stroke="url(#b)" stroke-linecap="round" stroke-linejoin="round" stroke-width="1.5" d="M21 16.623V7.379a.759.759 0 0 0-.384-.656l-8.25-4.64a.73.73 0 0 0-.732 0l-8.25 4.64A.76.76 0 0 0 3 7.379v9.244a.76.76 0 0 0 .384.656l8.25 4.64a.73.73 0 0 0 .732 0l8.25-4.64a.76.76 0 0 0 .384-.656v0Z"/><path stroke="#fff" stroke-linecap="round" stroke-linejoin="round" stroke-width="1.5" d="M16.594 14.297V9.422L7.5 4.406"/><path stroke="url(#c)" stroke-linecap="round" stroke-linejoin="round" stroke-width="1.5" d="M16.594 14.297V9.422L7.5 4.406"/><path stroke="url(#d)" stroke-linecap="round" stroke-linejoin="round" stroke-width="1.5" d="M16.594 14.297V9.422L7.5 4.406"/><path stroke="#fff" stroke-linecap="round" stroke-linejoin="round" stroke-width="1.5" d="M20.897 6.994 12.085 12 3.104 6.994"/><path stroke="url(#e)" stroke-linecap="round" stroke-linejoin="round" stroke-width="1.5" d="M20.897 6.994 12.085 12 3.104 6.994"/><path stroke="url(#f)" stroke-linecap="round" stroke-linejoin="round" stroke-width="1.5" d="M20.897 6.994 12.085 12 3.104 6.994"/><path stroke="#fff" stroke-linecap="round" stroke-linejoin="round" stroke-width="1.5" d="M12.084 12 12 22.012"/><path stroke="url(#g)" stroke-linecap="round" stroke-linejoin="round" stroke-width="1.5" d="M12.084 12 12 22.012"/><path stroke="url(#h)" stroke-linecap="round" stroke-linejoin="round" stroke-width="1.5" d="M12.084 12 12 22.012"/><defs><radialGradient id="a" cx="0" cy="0" r="1" gradientTransform="matrix(9 0 0 10.0167 12 12.001)" gradientUnits="userSpaceOnUse"><stop stop-color="#E35555"/><stop offset=".502" stop-color="#3A0202"/><stop offset=".503" stop-color="#7A55E3"/><stop offset="1" stop-color="#0E012B"/></radialGradient><radialGradient id="b" cx="0" cy="0" r="1" gradientTransform="matrix(-18 0 0 -19.4324 21 12.001)" gradientUnits="userSpaceOnUse"><stop offset=".13" stop-color="#F9E3B0"/><stop offset=".417" stop-color="#FFBAAB"/><stop offset=".871" stop-color="#B4BAEC"/></radialGradient><radialGradient id="c" cx="0" cy="0" r="1" gradientTransform="matrix(4.54687 0 0 4.94531 12.047 9.352)" gradientUnits="userSpaceOnUse"><stop stop-color="#E35555"/><stop offset=".502" stop-color="#3A0202"/><stop offset=".503" stop-color="#7A55E3"/><stop offset="1" stop-color="#0E012B"/></radialGradient><radialGradient id="d" cx="0" cy="0" r="1" gradientTransform="matrix(-9.09375 0 0 -9.59391 16.594 9.352)" gradientUnits="userSpaceOnUse"><stop offset=".13" stop-color="#F9E3B0"/><stop offset=".417" stop-color="#FFBAAB"/><stop offset=".871" stop-color="#B4BAEC"/></radialGradient><radialGradient id="e" cx="0" cy="0" r="1" gradientTransform="matrix(8.89687 0 0 2.50313 12 9.497)" gradientUnits="userSpaceOnUse"><stop stop-color="#E35555"/><stop offset=".502" stop-color="#3A0202"/><stop offset=".503" stop-color="#7A55E3"/><stop offset="1" stop-color="#0E012B"/></radialGradient><radialGradient id="f" cx="0" cy="0" r="1" gradientTransform="matrix(-17.7937 0 0 -4.85606 20.897 9.497)" gradientUnits="userSpaceOnUse"><stop offset=".13" stop-color="#F9E3B0"/><stop offset=".417" stop-color="#FFBAAB"/><stop offset=".871" stop-color="#B4BAEC"/></radialGradient><radialGradient id="g" cx="0" cy="0" r="1" gradientTransform="matrix(.04219 0 0 5.00625 12.042 17.006)" gradientUnits="userSpaceOnUse"><stop stop-color="#E35555"/><stop offset=".502" stop-color="#3A0202"/><stop offset=".503" stop-color="#7A55E3"/><stop offset="1" stop-color="#0E012B"/></radialGradient><radialGradient id="h" cx="0" cy="0" r="1" gradientTransform="rotate(180 6.042 8.503) scale(.08437 9.71264)" gradientUnits="userSpaceOnUse"><stop offset=".13" stop-color="#F9E3B0"/><stop offset=".417" stop-color="#FFBAAB"/><stop offset=".871" stop-color="#B4BAEC"/></radialGradient></defs></svg>