<svg width="24" height="24" viewBox="0 0 24 24" fill="none" xmlns="http://www.w3.org/2000/svg">
<path d="M21 16.623V7.37922C20.9993 7.2457 20.9634 7.11472 20.8959 6.99951C20.8284 6.88429 20.7317 6.7889 20.6156 6.72297L12.3656 2.08234C12.2545 2.01816 12.1284 1.98438 12 1.98438C11.8716 1.98438 11.7455 2.01816 11.6344 2.08234L3.38437 6.72297C3.26827 6.7889 3.1716 6.88429 3.10411 6.99951C3.03663 7.11472 3.00072 7.2457 3 7.37922V16.623C3.00072 16.7565 3.03663 16.8875 3.10411 17.0027C3.1716 17.1179 3.26827 17.2133 3.38437 17.2792L11.6344 21.9198C11.7455 21.984 11.8716 22.0178 12 22.0178C12.1284 22.0178 12.2545 21.984 12.3656 21.9198L20.6156 17.2792C20.7317 17.2133 20.8284 17.1179 20.8959 17.0027C20.9634 16.8875 20.9993 16.7565 21 16.623V16.623Z" stroke="white" stroke-width="1.5" stroke-linecap="round" stroke-linejoin="round"/>
<path d="M21 16.623V7.37922C20.9993 7.2457 20.9634 7.11472 20.8959 6.99951C20.8284 6.88429 20.7317 6.7889 20.6156 6.72297L12.3656 2.08234C12.2545 2.01816 12.1284 1.98438 12 1.98438C11.8716 1.98438 11.7455 2.01816 11.6344 2.08234L3.38437 6.72297C3.26827 6.7889 3.1716 6.88429 3.10411 6.99951C3.03663 7.11472 3.00072 7.2457 3 7.37922V16.623C3.00072 16.7565 3.03663 16.8875 3.10411 17.0027C3.1716 17.1179 3.26827 17.2133 3.38437 17.2792L11.6344 21.9198C11.7455 21.984 11.8716 22.0178 12 22.0178C12.1284 22.0178 12.2545 21.984 12.3656 21.9198L20.6156 17.2792C20.7317 17.2133 20.8284 17.1179 20.8959 17.0027C20.9634 16.8875 20.9993 16.7565 21 16.623V16.623Z" stroke="url(#paint0_angular_831_1842)" stroke-width="1.5" stroke-linecap="round" stroke-linejoin="round"/>
<path d="M21 16.623V7.37922C20.9993 7.2457 20.9634 7.11472 20.8959 6.99951C20.8284 6.88429 20.7317 6.7889 20.6156 6.72297L12.3656 2.08234C12.2545 2.01816 12.1284 1.98438 12 1.98438C11.8716 1.98438 11.7455 2.01816 11.6344 2.08234L3.38437 6.72297C3.26827 6.7889 3.1716 6.88429 3.10411 6.99951C3.03663 7.11472 3.00072 7.2457 3 7.37922V16.623C3.00072 16.7565 3.03663 16.8875 3.10411 17.0027C3.1716 17.1179 3.26827 17.2133 3.38437 17.2792L11.6344 21.9198C11.7455 21.984 11.8716 22.0178 12 22.0178C12.1284 22.0178 12.2545 21.984 12.3656 21.9198L20.6156 17.2792C20.7317 17.2133 20.8284 17.1179 20.8959 17.0027C20.9634 16.8875 20.9993 16.7565 21 16.623V16.623Z" stroke="url(#paint1_radial_831_1842)" stroke-width="1.5" stroke-linecap="round" stroke-linejoin="round"/>
<path d="M16.5938 14.2969V9.42188L7.5 4.40625" stroke="white" stroke-width="1.5" stroke-linecap="round" stroke-linejoin="round"/>
<path d="M16.5938 14.2969V9.42188L7.5 4.40625" stroke="url(#paint2_angular_831_1842)" stroke-width="1.5" stroke-linecap="round" stroke-linejoin="round"/>
<path d="M16.5938 14.2969V9.42188L7.5 4.40625" stroke="url(#paint3_radial_831_1842)" stroke-width="1.5" stroke-linecap="round" stroke-linejoin="round"/>
<path d="M20.8973 6.99414L12.0848 12.0004L3.10352 6.99414" stroke="white" stroke-width="1.5" stroke-linecap="round" stroke-linejoin="round"/>
<path d="M20.8973 6.99414L12.0848 12.0004L3.10352 6.99414" stroke="url(#paint4_angular_831_1842)" stroke-width="1.5" stroke-linecap="round" stroke-linejoin="round"/>
<path d="M20.8973 6.99414L12.0848 12.0004L3.10352 6.99414" stroke="url(#paint5_radial_831_1842)" stroke-width="1.5" stroke-linecap="round" stroke-linejoin="round"/>
<path d="M12.0844 12L12 22.0125" stroke="white" stroke-width="1.5" stroke-linecap="round" stroke-linejoin="round"/>
<path d="M12.0844 12L12 22.0125" stroke="url(#paint6_angular_831_1842)" stroke-width="1.5" stroke-linecap="round" stroke-linejoin="round"/>
<path d="M12.0844 12L12 22.0125" stroke="url(#paint7_radial_831_1842)" stroke-width="1.5" stroke-linecap="round" stroke-linejoin="round"/>
<defs>
<radialGradient id="paint0_angular_831_1842" cx="0" cy="0" r="1" gradientUnits="userSpaceOnUse" gradientTransform="translate(12 12.0011) scale(9 10.0167)">
<stop stop-color="#E35555"/>
<stop offset="0.501936" stop-color="#3A0202"/>
<stop offset="0.502917" stop-color="#7A55E3"/>
<stop offset="0.99984" stop-color="#0E012B"/>
</radialGradient>
<radialGradient id="paint1_radial_831_1842" cx="0" cy="0" r="1" gradientUnits="userSpaceOnUse" gradientTransform="translate(21 12.0011) rotate(180) scale(18 19.4324)">
<stop offset="0.13034" stop-color="#F9E3B0"/>
<stop offset="0.416676" stop-color="#FFBAAB"/>
<stop offset="0.870611" stop-color="#B4BAEC"/>
</radialGradient>
<radialGradient id="paint2_angular_831_1842" cx="0" cy="0" r="1" gradientUnits="userSpaceOnUse" gradientTransform="translate(12.0469 9.35156) scale(4.54687 4.94531)">
<stop stop-color="#E35555"/>
<stop offset="0.501936" stop-color="#3A0202"/>
<stop offset="0.502917" stop-color="#7A55E3"/>
<stop offset="0.99984" stop-color="#0E012B"/>
</radialGradient>
<radialGradient id="paint3_radial_831_1842" cx="0" cy="0" r="1" gradientUnits="userSpaceOnUse" gradientTransform="translate(16.5937 9.35156) rotate(180) scale(9.09375 9.59391)">
<stop offset="0.13034" stop-color="#F9E3B0"/>
<stop offset="0.416676" stop-color="#FFBAAB"/>
<stop offset="0.870611" stop-color="#B4BAEC"/>
</radialGradient>
<radialGradient id="paint4_angular_831_1842" cx="0" cy="0" r="1" gradientUnits="userSpaceOnUse" gradientTransform="translate(12.0004 9.49727) scale(8.89687 2.50313)">
<stop stop-color="#E35555"/>
<stop offset="0.501936" stop-color="#3A0202"/>
<stop offset="0.502917" stop-color="#7A55E3"/>
<stop offset="0.99984" stop-color="#0E012B"/>
</radialGradient>
<radialGradient id="paint5_radial_831_1842" cx="0" cy="0" r="1" gradientUnits="userSpaceOnUse" gradientTransform="translate(20.8973 9.49727) rotate(180) scale(17.7937 4.85606)">
<stop offset="0.13034" stop-color="#F9E3B0"/>
<stop offset="0.416676" stop-color="#FFBAAB"/>
<stop offset="0.870611" stop-color="#B4BAEC"/>
</radialGradient>
<radialGradient id="paint6_angular_831_1842" cx="0" cy="0" r="1" gradientUnits="userSpaceOnUse" gradientTransform="translate(12.0422 17.0063) scale(0.0421872 5.00625)">
<stop stop-color="#E35555"/>
<stop offset="0.501936" stop-color="#3A0202"/>
<stop offset="0.502917" stop-color="#7A55E3"/>
<stop offset="0.99984" stop-color="#0E012B"/>
</radialGradient>
<radialGradient id="paint7_radial_831_1842" cx="0" cy="0" r="1" gradientUnits="userSpaceOnUse" gradientTransform="translate(12.0844 17.0063) rotate(179.999) scale(0.0843744 9.71213)">
<stop offset="0.13034" stop-color="#F9E3B0"/>
<stop offset="0.416676" stop-color="#FFBAAB"/>
<stop offset="0.870611" stop-color="#B4BAEC"/>
</radialGradient>
</defs>
</svg>
