<svg width="294" height="294" viewBox="0 0 294 294" fill="none" xmlns="http://www.w3.org/2000/svg">
<g clip-path="url(#clip0_27_2)">
<path fill-rule="evenodd" clip-rule="evenodd" d="M14.388 54.2L140.088 109.8C143.288 111.3 147.288 111.1 152.288 108.8L276.088 54.1C282.688 51.7 278.988 44.3 273.788 45.1L17.188 44C9.98799 44.3 7.98798 51.5 14.388 54.2ZM4.28798 82.7L122.688 266.7C126.388 272.7 135.788 269.3 135.488 263.9L135.288 137.7C135.188 130.6 133.388 129 128.888 127.1L10.488 74.4C6.18798 72 0.387978 76 4.28798 82.7ZM155.588 135.4L155.888 262.4C155.988 270.9 164.488 272.5 169.388 265.3L272.288 105.9L274.488 102.5L276.388 99.6V99.5L287.188 82.9C290.488 77.4 285.288 71.1 277.488 74.8L160.088 127.7C159.888 127.8 159.688 127.9 159.488 128C157.988 128.9 156.988 129.8 156.488 130.9C155.788 132.1 155.588 133.6 155.588 135.4Z" fill="currentColor"/>
</g>
<defs>
<clipPath id="clip0_27_2">
<rect width="294" height="294" fill="white"/>
</clipPath>
</defs>
</svg>
