<svg width="44" height="45" viewBox="0 0 44 45" fill="none" xmlns="http://www.w3.org/2000/svg">
<path fill-rule="evenodd" clip-rule="evenodd" d="M21.9987 0.5C9.85658 0.5 0 10.3566 0 22.4987C0 34.6408 9.85658 44.5 21.9987 44.5C34.1408 44.5 44 34.6408 44 22.4987C44 10.3566 34.1408 0.5 21.9987 0.5ZM28.6198 32.3838C26.5361 32.6866 24.3101 32.8523 21.9987 32.8523C19.6899 32.8523 17.4639 32.6866 15.3802 32.3838C15.9781 34.7677 16.7909 36.8383 17.7615 38.4587C18.9755 40.4854 20.3784 41.8081 21.9987 41.8081C23.6216 41.8081 25.0219 40.4854 26.2385 38.4587C27.2091 36.8383 28.0219 34.7677 28.6198 32.3838ZM3.39856 28.0637C5.26479 34.3017 10.1853 39.2274 16.4233 41.0963C16.1179 40.6951 15.8228 40.2602 15.5407 39.7917C14.3112 37.7391 13.2991 35.0265 12.6132 31.8842C9.47609 31.2009 6.76863 30.1862 4.72121 28.9567C4.24495 28.672 3.80494 28.3743 3.39856 28.0637ZM40.6014 28.0637C40.1951 28.3743 39.7551 28.672 39.2788 28.9567C37.2314 30.1862 34.5239 31.2009 31.3868 31.8842C30.7009 35.0265 29.6888 37.7391 28.4593 39.7917C28.1772 40.2602 27.8821 40.6951 27.5767 41.0963C33.8147 39.2274 38.7352 34.3017 40.6014 28.0637ZM29.1841 15.3159C29.5594 17.542 29.7639 19.9647 29.7639 22.4987C29.7639 25.0327 29.5594 27.4554 29.1841 29.6815C26.9555 30.0594 24.5327 30.2639 21.9987 30.2639C19.4673 30.2639 17.0445 30.0594 14.8159 29.6815C14.4406 27.4554 14.2361 25.0327 14.2361 22.4987C14.2361 19.9647 14.4406 17.542 14.8159 15.3159C17.0445 14.938 19.4673 14.7335 21.9987 14.7335C24.5327 14.7335 26.9555 14.938 29.1841 15.3159ZM12.1162 15.8802C9.73751 16.4781 7.66939 17.2883 6.05164 18.2589C4.02752 19.4755 2.70745 20.8784 2.70745 22.4987C2.70745 24.119 4.02752 25.5219 6.05164 26.7385C7.66939 27.7091 9.73751 28.5193 12.1162 29.1172C11.8134 27.0336 11.6477 24.8075 11.6477 22.4987C11.6477 20.1899 11.8134 17.9638 12.1162 15.8802ZM31.8838 15.8802C32.1866 17.9638 32.3523 20.1899 32.3523 22.4987C32.3523 24.8075 32.1866 27.0336 31.8838 29.1172C34.2625 28.5193 36.3306 27.7091 37.9484 26.7385C39.9725 25.5219 41.2926 24.119 41.2926 22.4987C41.2926 20.8784 39.9725 19.4755 37.9484 18.2589C36.3306 17.2883 34.2625 16.4781 31.8838 15.8802ZM16.4207 3.90374C10.1853 5.77514 5.26738 10.6957 3.40115 16.9337C3.80494 16.6231 4.24495 16.3254 4.72121 16.0407C6.76863 14.8112 9.47609 13.7965 12.6132 13.1132C13.2991 9.97088 14.3112 7.25827 15.5407 5.20567C15.8228 4.73976 16.1153 4.30494 16.4207 3.90374ZM27.5793 3.90374C27.8847 4.30494 28.1772 4.73976 28.4593 5.20567C29.6888 7.25827 30.7009 9.97088 31.3868 13.1132C34.5239 13.7965 37.2314 14.8112 39.2788 16.0407C39.7551 16.3254 40.1951 16.6231 40.5989 16.9337C38.7326 10.6957 33.8147 5.77514 27.5793 3.90374ZM28.6198 12.6136C28.0219 10.2297 27.2091 8.15906 26.2385 6.53873C25.0219 4.51202 23.6216 3.18934 21.9987 3.18934C20.3784 3.18934 18.9755 4.51202 17.7615 6.53873C16.7909 8.15906 15.9781 10.2297 15.3802 12.6136C17.4639 12.3108 19.6899 12.1451 21.9987 12.1451C24.3101 12.1451 26.5361 12.3108 28.6198 12.6136Z" fill="currentColor"/>
</svg>
