<svg width="24" height="24" viewBox="0 0 24 24" fill="none" xmlns="http://www.w3.org/2000/svg">
<path fill-rule="evenodd" clip-rule="evenodd" d="M10.1073 4.42673C9.833 4.66423 9.50441 4.91433 9.12865 5.07061C8.75007 5.22808 8.34114 5.28171 7.98117 5.30537C7.74548 5.32086 7.48251 5.32505 7.24282 5.32888C7.12908 5.33069 7.02058 5.33242 6.92274 5.33524C6.20179 5.35597 5.8348 5.44461 5.6397 5.6397C5.44571 5.8337 5.36064 6.18976 5.34233 6.90627C5.33999 6.99803 5.33859 7.0987 5.33712 7.20424C5.33372 7.44908 5.32996 7.72012 5.31316 7.96705C5.28833 8.33226 5.2316 8.74427 5.06991 9.13035C4.9099 9.51239 4.6597 9.84411 4.41953 10.1223C4.25568 10.3121 4.06667 10.5094 3.89515 10.6885C3.82215 10.7647 3.75232 10.8375 3.68895 10.9051C3.45724 11.1523 3.27819 11.3621 3.15636 11.5598C3.03757 11.7525 3 11.8913 3 12C3 12.1077 3.03798 12.2488 3.15936 12.4461C3.28315 12.6473 3.46464 12.8611 3.69708 13.1101C3.76352 13.1813 3.83723 13.2584 3.91424 13.339C4.0832 13.5159 4.26801 13.7094 4.42673 13.8927C4.66423 14.167 4.91433 14.4956 5.07061 14.8713C5.22808 15.2499 5.28171 15.6589 5.30537 16.0188C5.32086 16.2545 5.32505 16.5175 5.32888 16.7572C5.33069 16.8709 5.33242 16.9794 5.33524 17.0773C5.35597 17.7982 5.44461 18.1652 5.6397 18.3603C5.8337 18.5543 6.18976 18.6394 6.90627 18.6577C6.99804 18.66 7.09872 18.6614 7.20427 18.6629C7.4491 18.6663 7.72013 18.67 7.96705 18.6868C8.33226 18.7117 8.74427 18.7684 9.13035 18.9301C9.51239 19.0901 9.84411 19.3403 10.1223 19.5805C10.3121 19.7443 10.5094 19.9333 10.6884 20.1048C10.7646 20.1778 10.8375 20.2477 10.9051 20.3111C11.1523 20.5428 11.3621 20.7218 11.5598 20.8436C11.7525 20.9624 11.8913 21 12 21C12.1077 21 12.2488 20.962 12.4461 20.8406C12.6473 20.7168 12.8611 20.5354 13.1101 20.3029C13.1813 20.2365 13.2584 20.1628 13.339 20.0858C13.5159 19.9168 13.7094 19.732 13.8927 19.5733C14.167 19.3358 14.4956 19.0857 14.8713 18.9294C15.2499 18.7719 15.6589 18.7183 16.0188 18.6946C16.2545 18.6791 16.5175 18.6749 16.7572 18.6711C16.8709 18.6693 16.9794 18.6676 17.0773 18.6648C17.7982 18.644 18.1652 18.5554 18.3603 18.3603C18.5543 18.1663 18.6394 17.8102 18.6577 17.0937C18.66 17.002 18.6614 16.9013 18.6629 16.7957C18.6663 16.5509 18.67 16.2799 18.6868 16.0329C18.7117 15.6677 18.7684 15.2557 18.9301 14.8697C19.0901 14.4876 19.3403 14.1559 19.5805 13.8777C19.7443 13.6879 19.9333 13.4906 20.1048 13.3116C20.1778 13.2354 20.2477 13.1625 20.3111 13.0949C20.5428 12.8477 20.7218 12.6379 20.8436 12.4402C20.9624 12.2475 21 12.1087 21 12C21 11.8923 20.962 11.7512 20.8406 11.5539C20.7168 11.3527 20.5354 11.1389 20.3029 10.8899C20.2365 10.8187 20.1628 10.7416 20.0858 10.661C19.9168 10.4841 19.732 10.2906 19.5733 10.1073C19.3358 9.833 19.0857 9.50441 18.9294 9.12865C18.7719 8.75007 18.7183 8.34114 18.6946 7.98117C18.6791 7.74549 18.6749 7.48252 18.6711 7.24284C18.6693 7.12909 18.6676 7.02059 18.6648 6.92274C18.644 6.20179 18.5554 5.8348 18.3603 5.6397C18.1663 5.44571 17.8102 5.36064 17.0937 5.34233C17.002 5.33999 16.9013 5.33859 16.7958 5.33712C16.5509 5.33372 16.2799 5.32996 16.0329 5.31316C15.6677 5.28833 15.2557 5.2316 14.8697 5.06991C14.4876 4.9099 14.1559 4.6597 13.8777 4.41953C13.6879 4.25568 13.4906 4.06667 13.3115 3.89515C13.2353 3.82215 13.1625 3.75232 13.0949 3.68895C12.8477 3.45724 12.6379 3.27819 12.4402 3.15636C12.2475 3.03757 12.1087 3 12 3C11.8923 3 11.7512 3.03798 11.5539 3.15936C11.3527 3.28315 11.1389 3.46464 10.8899 3.69708C10.8187 3.76352 10.7416 3.83723 10.661 3.91424C10.4841 4.0832 10.2906 4.26801 10.1073 4.42673ZM10.768 1.88175C11.1074 1.67296 11.5218 1.5 12 1.5C12.4772 1.5 12.8892 1.67102 13.2274 1.87948C13.5606 2.0849 13.8617 2.35175 14.1208 2.59464C14.2151 2.68307 14.3021 2.76653 14.3853 2.84631C14.549 3.0032 14.6978 3.14586 14.8579 3.28409C15.0918 3.48601 15.2827 3.61666 15.4491 3.68634C15.6115 3.75434 15.8323 3.79605 16.1347 3.81662C16.3413 3.83067 16.5415 3.83334 16.7633 3.8363C16.879 3.83784 17.0006 3.83946 17.132 3.84282C17.7913 3.85967 18.7525 3.91054 19.421 4.57905C20.0884 5.24645 20.145 6.2154 20.1641 6.87961C20.1682 7.02155 20.1702 7.1514 20.172 7.2745C20.1753 7.48837 20.1782 7.68183 20.1914 7.88279C20.2114 8.18698 20.2515 8.40149 20.3144 8.5526C20.3784 8.70653 20.5045 8.89122 20.7073 9.12549C20.8427 9.2819 20.9818 9.42735 21.1349 9.58736C21.2184 9.67464 21.306 9.76625 21.3994 9.86634C21.6439 10.1283 21.9119 10.4325 22.1182 10.768C22.327 11.1074 22.5 11.5218 22.5 12C22.5 12.4772 22.329 12.8892 22.1205 13.2274C21.9151 13.5606 21.6483 13.8617 21.4054 14.1208C21.3169 14.2151 21.2335 14.3021 21.1537 14.3853C20.9968 14.549 20.8541 14.6978 20.7159 14.8579C20.514 15.0918 20.3833 15.2827 20.3137 15.4491C20.2457 15.6115 20.204 15.8323 20.1834 16.1347C20.1693 16.3413 20.1667 16.5415 20.1637 16.7633C20.1622 16.879 20.1605 17.0006 20.1572 17.132C20.1403 17.7913 20.0895 18.7525 19.421 19.421C18.7535 20.0884 17.7846 20.145 17.1204 20.1641C16.9785 20.1682 16.8486 20.1702 16.7255 20.172C16.5116 20.1753 16.3182 20.1782 16.1172 20.1914C15.813 20.2114 15.5985 20.2515 15.4474 20.3144C15.2935 20.3784 15.1088 20.5045 14.8745 20.7073C14.7181 20.8427 14.5726 20.9818 14.4126 21.1349C14.3254 21.2184 14.2337 21.306 14.1337 21.3994C13.8717 21.6439 13.5675 21.9119 13.232 22.1182C12.8926 22.327 12.4782 22.5 12 22.5C11.5228 22.5 11.1108 22.329 10.7726 22.1205C10.4394 21.9151 10.1383 21.6483 9.87923 21.4054C9.78491 21.3169 9.69787 21.2335 9.61466 21.1537C9.45104 20.9968 9.30225 20.8541 9.14213 20.7159C8.90823 20.514 8.71729 20.3833 8.5509 20.3137C8.38855 20.2457 8.16774 20.204 7.86527 20.1834C7.65874 20.1693 7.45849 20.1667 7.23671 20.1637C7.12097 20.1622 6.99937 20.1605 6.86795 20.1572C6.20868 20.1403 5.24755 20.0895 4.57905 19.421C3.91164 18.7535 3.85496 17.7846 3.83586 17.1204C3.83177 16.9785 3.82981 16.8486 3.82796 16.7255C3.82473 16.5116 3.82181 16.3182 3.8086 16.1172C3.7886 15.813 3.74849 15.5985 3.68564 15.4474C3.62161 15.2935 3.49553 15.1088 3.2927 14.8745C3.15729 14.7181 3.01817 14.5726 2.86512 14.4126C2.78163 14.3254 2.69401 14.2337 2.60058 14.1337C2.35606 13.8717 2.08814 13.5675 1.88175 13.232C1.67296 12.8926 1.5 12.4782 1.5 12C1.5 11.5228 1.67102 11.1108 1.87948 10.7726C2.0849 10.4394 2.35175 10.1383 2.59464 9.87923C2.68307 9.78491 2.76653 9.69787 2.84631 9.61466C3.0032 9.45103 3.14586 9.30225 3.28409 9.14213C3.48601 8.90823 3.61666 8.71729 3.68634 8.5509C3.75434 8.38855 3.79605 8.16774 3.81662 7.86527C3.83067 7.65874 3.83334 7.45849 3.8363 7.23671C3.83784 7.12097 3.83946 6.99936 3.84282 6.86795C3.85967 6.20868 3.91054 5.24755 4.57905 4.57905C5.24645 3.91164 6.2154 3.85496 6.87961 3.83586C7.02154 3.83177 7.1514 3.82981 7.27449 3.82796C7.48836 3.82473 7.68183 3.82181 7.88279 3.8086C8.18698 3.7886 8.40149 3.74849 8.5526 3.68564C8.70653 3.62161 8.89122 3.49553 9.12549 3.2927C9.2819 3.15729 9.42735 3.01817 9.58736 2.86512C9.67464 2.78163 9.76625 2.69401 9.86634 2.60058C10.1283 2.35606 10.4325 2.08814 10.768 1.88175Z" fill="white"/>
<path fill-rule="evenodd" clip-rule="evenodd" d="M10.1073 4.42673C9.833 4.66423 9.50441 4.91433 9.12865 5.07061C8.75007 5.22808 8.34114 5.28171 7.98117 5.30537C7.74548 5.32086 7.48251 5.32505 7.24282 5.32888C7.12908 5.33069 7.02058 5.33242 6.92274 5.33524C6.20179 5.35597 5.8348 5.44461 5.6397 5.6397C5.44571 5.8337 5.36064 6.18976 5.34233 6.90627C5.33999 6.99803 5.33859 7.0987 5.33712 7.20424C5.33372 7.44908 5.32996 7.72012 5.31316 7.96705C5.28833 8.33226 5.2316 8.74427 5.06991 9.13035C4.9099 9.51239 4.6597 9.84411 4.41953 10.1223C4.25568 10.3121 4.06667 10.5094 3.89515 10.6885C3.82215 10.7647 3.75232 10.8375 3.68895 10.9051C3.45724 11.1523 3.27819 11.3621 3.15636 11.5598C3.03757 11.7525 3 11.8913 3 12C3 12.1077 3.03798 12.2488 3.15936 12.4461C3.28315 12.6473 3.46464 12.8611 3.69708 13.1101C3.76352 13.1813 3.83723 13.2584 3.91424 13.339C4.0832 13.5159 4.26801 13.7094 4.42673 13.8927C4.66423 14.167 4.91433 14.4956 5.07061 14.8713C5.22808 15.2499 5.28171 15.6589 5.30537 16.0188C5.32086 16.2545 5.32505 16.5175 5.32888 16.7572C5.33069 16.8709 5.33242 16.9794 5.33524 17.0773C5.35597 17.7982 5.44461 18.1652 5.6397 18.3603C5.8337 18.5543 6.18976 18.6394 6.90627 18.6577C6.99804 18.66 7.09872 18.6614 7.20427 18.6629C7.4491 18.6663 7.72013 18.67 7.96705 18.6868C8.33226 18.7117 8.74427 18.7684 9.13035 18.9301C9.51239 19.0901 9.84411 19.3403 10.1223 19.5805C10.3121 19.7443 10.5094 19.9333 10.6884 20.1048C10.7646 20.1778 10.8375 20.2477 10.9051 20.3111C11.1523 20.5428 11.3621 20.7218 11.5598 20.8436C11.7525 20.9624 11.8913 21 12 21C12.1077 21 12.2488 20.962 12.4461 20.8406C12.6473 20.7168 12.8611 20.5354 13.1101 20.3029C13.1813 20.2365 13.2584 20.1628 13.339 20.0858C13.5159 19.9168 13.7094 19.732 13.8927 19.5733C14.167 19.3358 14.4956 19.0857 14.8713 18.9294C15.2499 18.7719 15.6589 18.7183 16.0188 18.6946C16.2545 18.6791 16.5175 18.6749 16.7572 18.6711C16.8709 18.6693 16.9794 18.6676 17.0773 18.6648C17.7982 18.644 18.1652 18.5554 18.3603 18.3603C18.5543 18.1663 18.6394 17.8102 18.6577 17.0937C18.66 17.002 18.6614 16.9013 18.6629 16.7957C18.6663 16.5509 18.67 16.2799 18.6868 16.0329C18.7117 15.6677 18.7684 15.2557 18.9301 14.8697C19.0901 14.4876 19.3403 14.1559 19.5805 13.8777C19.7443 13.6879 19.9333 13.4906 20.1048 13.3116C20.1778 13.2354 20.2477 13.1625 20.3111 13.0949C20.5428 12.8477 20.7218 12.6379 20.8436 12.4402C20.9624 12.2475 21 12.1087 21 12C21 11.8923 20.962 11.7512 20.8406 11.5539C20.7168 11.3527 20.5354 11.1389 20.3029 10.8899C20.2365 10.8187 20.1628 10.7416 20.0858 10.661C19.9168 10.4841 19.732 10.2906 19.5733 10.1073C19.3358 9.833 19.0857 9.50441 18.9294 9.12865C18.7719 8.75007 18.7183 8.34114 18.6946 7.98117C18.6791 7.74549 18.6749 7.48252 18.6711 7.24284C18.6693 7.12909 18.6676 7.02059 18.6648 6.92274C18.644 6.20179 18.5554 5.8348 18.3603 5.6397C18.1663 5.44571 17.8102 5.36064 17.0937 5.34233C17.002 5.33999 16.9013 5.33859 16.7958 5.33712C16.5509 5.33372 16.2799 5.32996 16.0329 5.31316C15.6677 5.28833 15.2557 5.2316 14.8697 5.06991C14.4876 4.9099 14.1559 4.6597 13.8777 4.41953C13.6879 4.25568 13.4906 4.06667 13.3115 3.89515C13.2353 3.82215 13.1625 3.75232 13.0949 3.68895C12.8477 3.45724 12.6379 3.27819 12.4402 3.15636C12.2475 3.03757 12.1087 3 12 3C11.8923 3 11.7512 3.03798 11.5539 3.15936C11.3527 3.28315 11.1389 3.46464 10.8899 3.69708C10.8187 3.76352 10.7416 3.83723 10.661 3.91424C10.4841 4.0832 10.2906 4.26801 10.1073 4.42673ZM10.768 1.88175C11.1074 1.67296 11.5218 1.5 12 1.5C12.4772 1.5 12.8892 1.67102 13.2274 1.87948C13.5606 2.0849 13.8617 2.35175 14.1208 2.59464C14.2151 2.68307 14.3021 2.76653 14.3853 2.84631C14.549 3.0032 14.6978 3.14586 14.8579 3.28409C15.0918 3.48601 15.2827 3.61666 15.4491 3.68634C15.6115 3.75434 15.8323 3.79605 16.1347 3.81662C16.3413 3.83067 16.5415 3.83334 16.7633 3.8363C16.879 3.83784 17.0006 3.83946 17.132 3.84282C17.7913 3.85967 18.7525 3.91054 19.421 4.57905C20.0884 5.24645 20.145 6.2154 20.1641 6.87961C20.1682 7.02155 20.1702 7.1514 20.172 7.2745C20.1753 7.48837 20.1782 7.68183 20.1914 7.88279C20.2114 8.18698 20.2515 8.40149 20.3144 8.5526C20.3784 8.70653 20.5045 8.89122 20.7073 9.12549C20.8427 9.2819 20.9818 9.42735 21.1349 9.58736C21.2184 9.67464 21.306 9.76625 21.3994 9.86634C21.6439 10.1283 21.9119 10.4325 22.1182 10.768C22.327 11.1074 22.5 11.5218 22.5 12C22.5 12.4772 22.329 12.8892 22.1205 13.2274C21.9151 13.5606 21.6483 13.8617 21.4054 14.1208C21.3169 14.2151 21.2335 14.3021 21.1537 14.3853C20.9968 14.549 20.8541 14.6978 20.7159 14.8579C20.514 15.0918 20.3833 15.2827 20.3137 15.4491C20.2457 15.6115 20.204 15.8323 20.1834 16.1347C20.1693 16.3413 20.1667 16.5415 20.1637 16.7633C20.1622 16.879 20.1605 17.0006 20.1572 17.132C20.1403 17.7913 20.0895 18.7525 19.421 19.421C18.7535 20.0884 17.7846 20.145 17.1204 20.1641C16.9785 20.1682 16.8486 20.1702 16.7255 20.172C16.5116 20.1753 16.3182 20.1782 16.1172 20.1914C15.813 20.2114 15.5985 20.2515 15.4474 20.3144C15.2935 20.3784 15.1088 20.5045 14.8745 20.7073C14.7181 20.8427 14.5726 20.9818 14.4126 21.1349C14.3254 21.2184 14.2337 21.306 14.1337 21.3994C13.8717 21.6439 13.5675 21.9119 13.232 22.1182C12.8926 22.327 12.4782 22.5 12 22.5C11.5228 22.5 11.1108 22.329 10.7726 22.1205C10.4394 21.9151 10.1383 21.6483 9.87923 21.4054C9.78491 21.3169 9.69787 21.2335 9.61466 21.1537C9.45104 20.9968 9.30225 20.8541 9.14213 20.7159C8.90823 20.514 8.71729 20.3833 8.5509 20.3137C8.38855 20.2457 8.16774 20.204 7.86527 20.1834C7.65874 20.1693 7.45849 20.1667 7.23671 20.1637C7.12097 20.1622 6.99937 20.1605 6.86795 20.1572C6.20868 20.1403 5.24755 20.0895 4.57905 19.421C3.91164 18.7535 3.85496 17.7846 3.83586 17.1204C3.83177 16.9785 3.82981 16.8486 3.82796 16.7255C3.82473 16.5116 3.82181 16.3182 3.8086 16.1172C3.7886 15.813 3.74849 15.5985 3.68564 15.4474C3.62161 15.2935 3.49553 15.1088 3.2927 14.8745C3.15729 14.7181 3.01817 14.5726 2.86512 14.4126C2.78163 14.3254 2.69401 14.2337 2.60058 14.1337C2.35606 13.8717 2.08814 13.5675 1.88175 13.232C1.67296 12.8926 1.5 12.4782 1.5 12C1.5 11.5228 1.67102 11.1108 1.87948 10.7726C2.0849 10.4394 2.35175 10.1383 2.59464 9.87923C2.68307 9.78491 2.76653 9.69787 2.84631 9.61466C3.0032 9.45103 3.14586 9.30225 3.28409 9.14213C3.48601 8.90823 3.61666 8.71729 3.68634 8.5509C3.75434 8.38855 3.79605 8.16774 3.81662 7.86527C3.83067 7.65874 3.83334 7.45849 3.8363 7.23671C3.83784 7.12097 3.83946 6.99936 3.84282 6.86795C3.85967 6.20868 3.91054 5.24755 4.57905 4.57905C5.24645 3.91164 6.2154 3.85496 6.87961 3.83586C7.02154 3.83177 7.1514 3.82981 7.27449 3.82796C7.48836 3.82473 7.68183 3.82181 7.88279 3.8086C8.18698 3.7886 8.40149 3.74849 8.5526 3.68564C8.70653 3.62161 8.89122 3.49553 9.12549 3.2927C9.2819 3.15729 9.42735 3.01817 9.58736 2.86512C9.67464 2.78163 9.76625 2.69401 9.86634 2.60058C10.1283 2.35606 10.4325 2.08814 10.768 1.88175Z" fill="url(#paint0_angular_981_1662)"/>
<path fill-rule="evenodd" clip-rule="evenodd" d="M10.1073 4.42673C9.833 4.66423 9.50441 4.91433 9.12865 5.07061C8.75007 5.22808 8.34114 5.28171 7.98117 5.30537C7.74548 5.32086 7.48251 5.32505 7.24282 5.32888C7.12908 5.33069 7.02058 5.33242 6.92274 5.33524C6.20179 5.35597 5.8348 5.44461 5.6397 5.6397C5.44571 5.8337 5.36064 6.18976 5.34233 6.90627C5.33999 6.99803 5.33859 7.0987 5.33712 7.20424C5.33372 7.44908 5.32996 7.72012 5.31316 7.96705C5.28833 8.33226 5.2316 8.74427 5.06991 9.13035C4.9099 9.51239 4.6597 9.84411 4.41953 10.1223C4.25568 10.3121 4.06667 10.5094 3.89515 10.6885C3.82215 10.7647 3.75232 10.8375 3.68895 10.9051C3.45724 11.1523 3.27819 11.3621 3.15636 11.5598C3.03757 11.7525 3 11.8913 3 12C3 12.1077 3.03798 12.2488 3.15936 12.4461C3.28315 12.6473 3.46464 12.8611 3.69708 13.1101C3.76352 13.1813 3.83723 13.2584 3.91424 13.339C4.0832 13.5159 4.26801 13.7094 4.42673 13.8927C4.66423 14.167 4.91433 14.4956 5.07061 14.8713C5.22808 15.2499 5.28171 15.6589 5.30537 16.0188C5.32086 16.2545 5.32505 16.5175 5.32888 16.7572C5.33069 16.8709 5.33242 16.9794 5.33524 17.0773C5.35597 17.7982 5.44461 18.1652 5.6397 18.3603C5.8337 18.5543 6.18976 18.6394 6.90627 18.6577C6.99804 18.66 7.09872 18.6614 7.20427 18.6629C7.4491 18.6663 7.72013 18.67 7.96705 18.6868C8.33226 18.7117 8.74427 18.7684 9.13035 18.9301C9.51239 19.0901 9.84411 19.3403 10.1223 19.5805C10.3121 19.7443 10.5094 19.9333 10.6884 20.1048C10.7646 20.1778 10.8375 20.2477 10.9051 20.3111C11.1523 20.5428 11.3621 20.7218 11.5598 20.8436C11.7525 20.9624 11.8913 21 12 21C12.1077 21 12.2488 20.962 12.4461 20.8406C12.6473 20.7168 12.8611 20.5354 13.1101 20.3029C13.1813 20.2365 13.2584 20.1628 13.339 20.0858C13.5159 19.9168 13.7094 19.732 13.8927 19.5733C14.167 19.3358 14.4956 19.0857 14.8713 18.9294C15.2499 18.7719 15.6589 18.7183 16.0188 18.6946C16.2545 18.6791 16.5175 18.6749 16.7572 18.6711C16.8709 18.6693 16.9794 18.6676 17.0773 18.6648C17.7982 18.644 18.1652 18.5554 18.3603 18.3603C18.5543 18.1663 18.6394 17.8102 18.6577 17.0937C18.66 17.002 18.6614 16.9013 18.6629 16.7957C18.6663 16.5509 18.67 16.2799 18.6868 16.0329C18.7117 15.6677 18.7684 15.2557 18.9301 14.8697C19.0901 14.4876 19.3403 14.1559 19.5805 13.8777C19.7443 13.6879 19.9333 13.4906 20.1048 13.3116C20.1778 13.2354 20.2477 13.1625 20.3111 13.0949C20.5428 12.8477 20.7218 12.6379 20.8436 12.4402C20.9624 12.2475 21 12.1087 21 12C21 11.8923 20.962 11.7512 20.8406 11.5539C20.7168 11.3527 20.5354 11.1389 20.3029 10.8899C20.2365 10.8187 20.1628 10.7416 20.0858 10.661C19.9168 10.4841 19.732 10.2906 19.5733 10.1073C19.3358 9.833 19.0857 9.50441 18.9294 9.12865C18.7719 8.75007 18.7183 8.34114 18.6946 7.98117C18.6791 7.74549 18.6749 7.48252 18.6711 7.24284C18.6693 7.12909 18.6676 7.02059 18.6648 6.92274C18.644 6.20179 18.5554 5.8348 18.3603 5.6397C18.1663 5.44571 17.8102 5.36064 17.0937 5.34233C17.002 5.33999 16.9013 5.33859 16.7958 5.33712C16.5509 5.33372 16.2799 5.32996 16.0329 5.31316C15.6677 5.28833 15.2557 5.2316 14.8697 5.06991C14.4876 4.9099 14.1559 4.6597 13.8777 4.41953C13.6879 4.25568 13.4906 4.06667 13.3115 3.89515C13.2353 3.82215 13.1625 3.75232 13.0949 3.68895C12.8477 3.45724 12.6379 3.27819 12.4402 3.15636C12.2475 3.03757 12.1087 3 12 3C11.8923 3 11.7512 3.03798 11.5539 3.15936C11.3527 3.28315 11.1389 3.46464 10.8899 3.69708C10.8187 3.76352 10.7416 3.83723 10.661 3.91424C10.4841 4.0832 10.2906 4.26801 10.1073 4.42673ZM10.768 1.88175C11.1074 1.67296 11.5218 1.5 12 1.5C12.4772 1.5 12.8892 1.67102 13.2274 1.87948C13.5606 2.0849 13.8617 2.35175 14.1208 2.59464C14.2151 2.68307 14.3021 2.76653 14.3853 2.84631C14.549 3.0032 14.6978 3.14586 14.8579 3.28409C15.0918 3.48601 15.2827 3.61666 15.4491 3.68634C15.6115 3.75434 15.8323 3.79605 16.1347 3.81662C16.3413 3.83067 16.5415 3.83334 16.7633 3.8363C16.879 3.83784 17.0006 3.83946 17.132 3.84282C17.7913 3.85967 18.7525 3.91054 19.421 4.57905C20.0884 5.24645 20.145 6.2154 20.1641 6.87961C20.1682 7.02155 20.1702 7.1514 20.172 7.2745C20.1753 7.48837 20.1782 7.68183 20.1914 7.88279C20.2114 8.18698 20.2515 8.40149 20.3144 8.5526C20.3784 8.70653 20.5045 8.89122 20.7073 9.12549C20.8427 9.2819 20.9818 9.42735 21.1349 9.58736C21.2184 9.67464 21.306 9.76625 21.3994 9.86634C21.6439 10.1283 21.9119 10.4325 22.1182 10.768C22.327 11.1074 22.5 11.5218 22.5 12C22.5 12.4772 22.329 12.8892 22.1205 13.2274C21.9151 13.5606 21.6483 13.8617 21.4054 14.1208C21.3169 14.2151 21.2335 14.3021 21.1537 14.3853C20.9968 14.549 20.8541 14.6978 20.7159 14.8579C20.514 15.0918 20.3833 15.2827 20.3137 15.4491C20.2457 15.6115 20.204 15.8323 20.1834 16.1347C20.1693 16.3413 20.1667 16.5415 20.1637 16.7633C20.1622 16.879 20.1605 17.0006 20.1572 17.132C20.1403 17.7913 20.0895 18.7525 19.421 19.421C18.7535 20.0884 17.7846 20.145 17.1204 20.1641C16.9785 20.1682 16.8486 20.1702 16.7255 20.172C16.5116 20.1753 16.3182 20.1782 16.1172 20.1914C15.813 20.2114 15.5985 20.2515 15.4474 20.3144C15.2935 20.3784 15.1088 20.5045 14.8745 20.7073C14.7181 20.8427 14.5726 20.9818 14.4126 21.1349C14.3254 21.2184 14.2337 21.306 14.1337 21.3994C13.8717 21.6439 13.5675 21.9119 13.232 22.1182C12.8926 22.327 12.4782 22.5 12 22.5C11.5228 22.5 11.1108 22.329 10.7726 22.1205C10.4394 21.9151 10.1383 21.6483 9.87923 21.4054C9.78491 21.3169 9.69787 21.2335 9.61466 21.1537C9.45104 20.9968 9.30225 20.8541 9.14213 20.7159C8.90823 20.514 8.71729 20.3833 8.5509 20.3137C8.38855 20.2457 8.16774 20.204 7.86527 20.1834C7.65874 20.1693 7.45849 20.1667 7.23671 20.1637C7.12097 20.1622 6.99937 20.1605 6.86795 20.1572C6.20868 20.1403 5.24755 20.0895 4.57905 19.421C3.91164 18.7535 3.85496 17.7846 3.83586 17.1204C3.83177 16.9785 3.82981 16.8486 3.82796 16.7255C3.82473 16.5116 3.82181 16.3182 3.8086 16.1172C3.7886 15.813 3.74849 15.5985 3.68564 15.4474C3.62161 15.2935 3.49553 15.1088 3.2927 14.8745C3.15729 14.7181 3.01817 14.5726 2.86512 14.4126C2.78163 14.3254 2.69401 14.2337 2.60058 14.1337C2.35606 13.8717 2.08814 13.5675 1.88175 13.232C1.67296 12.8926 1.5 12.4782 1.5 12C1.5 11.5228 1.67102 11.1108 1.87948 10.7726C2.0849 10.4394 2.35175 10.1383 2.59464 9.87923C2.68307 9.78491 2.76653 9.69787 2.84631 9.61466C3.0032 9.45103 3.14586 9.30225 3.28409 9.14213C3.48601 8.90823 3.61666 8.71729 3.68634 8.5509C3.75434 8.38855 3.79605 8.16774 3.81662 7.86527C3.83067 7.65874 3.83334 7.45849 3.8363 7.23671C3.83784 7.12097 3.83946 6.99936 3.84282 6.86795C3.85967 6.20868 3.91054 5.24755 4.57905 4.57905C5.24645 3.91164 6.2154 3.85496 6.87961 3.83586C7.02154 3.83177 7.1514 3.82981 7.27449 3.82796C7.48836 3.82473 7.68183 3.82181 7.88279 3.8086C8.18698 3.7886 8.40149 3.74849 8.5526 3.68564C8.70653 3.62161 8.89122 3.49553 9.12549 3.2927C9.2819 3.15729 9.42735 3.01817 9.58736 2.86512C9.67464 2.78163 9.76625 2.69401 9.86634 2.60058C10.1283 2.35606 10.4325 2.08814 10.768 1.88175Z" fill="url(#paint1_radial_981_1662)"/>
<path fill-rule="evenodd" clip-rule="evenodd" d="M16.6677 9.2323C16.9536 9.532 16.9424 10.0067 16.6427 10.2927L11.1396 15.5427C10.8496 15.8193 10.3934 15.8191 10.1037 15.5422L7.35684 12.9172C7.05738 12.631 7.0466 12.1563 7.33278 11.8568C7.61895 11.5574 8.0937 11.5466 8.39317 11.8328L10.6223 13.963L15.6073 9.20734C15.907 8.92142 16.3817 8.93259 16.6677 9.2323Z" fill="white"/>
<path fill-rule="evenodd" clip-rule="evenodd" d="M16.6677 9.2323C16.9536 9.532 16.9424 10.0067 16.6427 10.2927L11.1396 15.5427C10.8496 15.8193 10.3934 15.8191 10.1037 15.5422L7.35684 12.9172C7.05738 12.631 7.0466 12.1563 7.33278 11.8568C7.61895 11.5574 8.0937 11.5466 8.39317 11.8328L10.6223 13.963L15.6073 9.20734C15.907 8.92142 16.3817 8.93259 16.6677 9.2323Z" fill="url(#paint2_angular_981_1662)"/>
<path fill-rule="evenodd" clip-rule="evenodd" d="M16.6677 9.2323C16.9536 9.532 16.9424 10.0067 16.6427 10.2927L11.1396 15.5427C10.8496 15.8193 10.3934 15.8191 10.1037 15.5422L7.35684 12.9172C7.05738 12.631 7.0466 12.1563 7.33278 11.8568C7.61895 11.5574 8.0937 11.5466 8.39317 11.8328L10.6223 13.963L15.6073 9.20734C15.907 8.92142 16.3817 8.93259 16.6677 9.2323Z" fill="url(#paint3_radial_981_1662)"/>
<defs>
<radialGradient id="paint0_angular_981_1662" cx="0" cy="0" r="1" gradientUnits="userSpaceOnUse" gradientTransform="translate(12 12) scale(10.5)">
<stop stop-color="#E35555"/>
<stop offset="0.501936" stop-color="#3A0202"/>
<stop offset="0.502917" stop-color="#7A55E3"/>
<stop offset="0.99984" stop-color="#0E012B"/>
</radialGradient>
<radialGradient id="paint1_radial_981_1662" cx="0" cy="0" r="1" gradientUnits="userSpaceOnUse" gradientTransform="translate(22.5 12) rotate(180) scale(21 20.37)">
<stop offset="0.13034" stop-color="#F9E3B0"/>
<stop offset="0.416676" stop-color="#FFBAAB"/>
<stop offset="0.870611" stop-color="#B4BAEC"/>
</radialGradient>
<radialGradient id="paint2_angular_981_1662" cx="0" cy="0" r="1" gradientUnits="userSpaceOnUse" gradientTransform="translate(12 12.375) scale(4.875 3.375)">
<stop stop-color="#E35555"/>
<stop offset="0.501936" stop-color="#3A0202"/>
<stop offset="0.502917" stop-color="#7A55E3"/>
<stop offset="0.99984" stop-color="#0E012B"/>
</radialGradient>
<radialGradient id="paint3_radial_981_1662" cx="0" cy="0" r="1" gradientUnits="userSpaceOnUse" gradientTransform="translate(16.875 12.375) rotate(180) scale(9.75 6.5475)">
<stop offset="0.13034" stop-color="#F9E3B0"/>
<stop offset="0.416676" stop-color="#FFBAAB"/>
<stop offset="0.870611" stop-color="#B4BAEC"/>
</radialGradient>
</defs>
</svg>
