<svg xmlns="http://www.w3.org/2000/svg" width="24" height="24" fill="none"><path stroke="#fff" stroke-linecap="round" stroke-linejoin="round" stroke-width="1.5" d="M5.25 15h13.5"/><path stroke="url(#a)" stroke-linecap="round" stroke-linejoin="round" stroke-width="1.5" d="M5.25 15h13.5"/><path stroke="url(#b)" stroke-linecap="round" stroke-linejoin="round" stroke-width="1.5" d="M5.25 15h13.5"/><path stroke="#fff" stroke-linecap="round" stroke-linejoin="round" stroke-width="1.5" d="M15.675 21.75a.74.74 0 0 1-.731-.6 3.01 3.01 0 0 0-5.888 0 .74.74 0 0 1-.731.6H6a.75.75 0 0 1-.75-.75V3A.75.75 0 0 1 6 2.25h2.325a.74.74 0 0 1 .731.6 3.01 3.01 0 0 0 5.888 0 .74.74 0 0 1 .731-.6H18a.75.75 0 0 1 .75.75v18a.75.75 0 0 1-.75.75h-2.325Z"/><path stroke="url(#c)" stroke-linecap="round" stroke-linejoin="round" stroke-width="1.5" d="M15.675 21.75a.74.74 0 0 1-.731-.6 3.01 3.01 0 0 0-5.888 0 .74.74 0 0 1-.731.6H6a.75.75 0 0 1-.75-.75V3A.75.75 0 0 1 6 2.25h2.325a.74.74 0 0 1 .731.6 3.01 3.01 0 0 0 5.888 0 .74.74 0 0 1 .731-.6H18a.75.75 0 0 1 .75.75v18a.75.75 0 0 1-.75.75h-2.325Z"/><path stroke="url(#d)" stroke-linecap="round" stroke-linejoin="round" stroke-width="1.5" d="M15.675 21.75a.74.74 0 0 1-.731-.6 3.01 3.01 0 0 0-5.888 0 .74.74 0 0 1-.731.6H6a.75.75 0 0 1-.75-.75V3A.75.75 0 0 1 6 2.25h2.325a.74.74 0 0 1 .731.6 3.01 3.01 0 0 0 5.888 0 .74.74 0 0 1 .731-.6H18a.75.75 0 0 1 .75.75v18a.75.75 0 0 1-.75.75h-2.325Z"/><defs><radialGradient id="a" cx="0" cy="0" r="1" gradientTransform="matrix(0 -.5 6.75 0 12 14.5)" gradientUnits="userSpaceOnUse"><stop stop-color="#E35555"/><stop offset=".502" stop-color="#3A0202"/><stop offset=".503" stop-color="#7A55E3"/><stop offset="1" stop-color="#0E012B"/></radialGradient><radialGradient id="b" cx="0" cy="0" r="1" gradientTransform="rotate(90 -1 13) scale(1 13.095)" gradientUnits="userSpaceOnUse"><stop offset=".13" stop-color="#F9E3B0"/><stop offset=".417" stop-color="#FFBAAB"/><stop offset=".871" stop-color="#B4BAEC"/></radialGradient><radialGradient id="c" cx="0" cy="0" r="1" gradientTransform="matrix(0 -9.75001 6.75 0 12 12)" gradientUnits="userSpaceOnUse"><stop stop-color="#E35555"/><stop offset=".502" stop-color="#3A0202"/><stop offset=".503" stop-color="#7A55E3"/><stop offset="1" stop-color="#0E012B"/></radialGradient><radialGradient id="d" cx="0" cy="0" r="1" gradientTransform="matrix(0 19.5 -13.095 0 12 2.25)" gradientUnits="userSpaceOnUse"><stop offset=".13" stop-color="#F9E3B0"/><stop offset=".417" stop-color="#FFBAAB"/><stop offset=".871" stop-color="#B4BAEC"/></radialGradient></defs></svg>