<svg width="24" height="24" viewBox="0 0 24 24" fill="none" xmlns="http://www.w3.org/2000/svg">
<path d="M5.25 15L18.75 15" stroke="white" stroke-width="1.5" stroke-linecap="round" stroke-linejoin="round"/>
<path d="M5.25 15L18.75 15" stroke="url(#paint0_angular_831_1841)" stroke-width="1.5" stroke-linecap="round" stroke-linejoin="round"/>
<path d="M5.25 15L18.75 15" stroke="url(#paint1_radial_831_1841)" stroke-width="1.5" stroke-linecap="round" stroke-linejoin="round"/>
<path d="M15.675 21.75C15.5023 21.7509 15.3346 21.6915 15.2011 21.5819C15.0676 21.4724 14.9765 21.3196 14.9438 21.15C14.8005 20.4754 14.43 19.8705 13.8941 19.4365C13.3583 19.0025 12.6896 18.7657 12 18.7657C11.3104 18.7657 10.6417 19.0025 10.1059 19.4365C9.57002 19.8705 9.19948 20.4754 9.05625 21.15C9.02346 21.3196 8.93242 21.4724 8.79889 21.5819C8.66535 21.6915 8.49773 21.7509 8.325 21.75L6 21.75C5.80109 21.75 5.61032 21.671 5.46967 21.5303C5.32902 21.3897 5.25 21.1989 5.25 21L5.25 2.99999C5.25 2.80108 5.32902 2.61031 5.46967 2.46966C5.61032 2.32901 5.80109 2.24999 6 2.24999L8.325 2.24999C8.49773 2.24903 8.66535 2.30848 8.79889 2.41804C8.93242 2.52761 9.02346 2.6804 9.05625 2.84999C9.19947 3.52454 9.57002 4.12944 10.1059 4.56347C10.6417 4.9975 11.3104 5.23432 12 5.23432C12.6896 5.23432 13.3583 4.9975 13.8941 4.56347C14.43 4.12944 14.8005 3.52454 14.9437 2.84999C14.9765 2.6804 15.0676 2.52761 15.2011 2.41804C15.3346 2.30848 15.5023 2.24903 15.675 2.24999L18 2.24999C18.1989 2.24999 18.3897 2.32901 18.5303 2.46966C18.671 2.61031 18.75 2.80108 18.75 2.99999L18.75 21C18.75 21.1989 18.671 21.3897 18.5303 21.5303C18.3897 21.671 18.1989 21.75 18 21.75L15.675 21.75Z" stroke="white" stroke-width="1.5" stroke-linecap="round" stroke-linejoin="round"/>
<path d="M15.675 21.75C15.5023 21.7509 15.3346 21.6915 15.2011 21.5819C15.0676 21.4724 14.9765 21.3196 14.9438 21.15C14.8005 20.4754 14.43 19.8705 13.8941 19.4365C13.3583 19.0025 12.6896 18.7657 12 18.7657C11.3104 18.7657 10.6417 19.0025 10.1059 19.4365C9.57002 19.8705 9.19948 20.4754 9.05625 21.15C9.02346 21.3196 8.93242 21.4724 8.79889 21.5819C8.66535 21.6915 8.49773 21.7509 8.325 21.75L6 21.75C5.80109 21.75 5.61032 21.671 5.46967 21.5303C5.32902 21.3897 5.25 21.1989 5.25 21L5.25 2.99999C5.25 2.80108 5.32902 2.61031 5.46967 2.46966C5.61032 2.32901 5.80109 2.24999 6 2.24999L8.325 2.24999C8.49773 2.24903 8.66535 2.30848 8.79889 2.41804C8.93242 2.52761 9.02346 2.6804 9.05625 2.84999C9.19947 3.52454 9.57002 4.12944 10.1059 4.56347C10.6417 4.9975 11.3104 5.23432 12 5.23432C12.6896 5.23432 13.3583 4.9975 13.8941 4.56347C14.43 4.12944 14.8005 3.52454 14.9437 2.84999C14.9765 2.6804 15.0676 2.52761 15.2011 2.41804C15.3346 2.30848 15.5023 2.24903 15.675 2.24999L18 2.24999C18.1989 2.24999 18.3897 2.32901 18.5303 2.46966C18.671 2.61031 18.75 2.80108 18.75 2.99999L18.75 21C18.75 21.1989 18.671 21.3897 18.5303 21.5303C18.3897 21.671 18.1989 21.75 18 21.75L15.675 21.75Z" stroke="url(#paint2_angular_831_1841)" stroke-width="1.5" stroke-linecap="round" stroke-linejoin="round"/>
<path d="M15.675 21.75C15.5023 21.7509 15.3346 21.6915 15.2011 21.5819C15.0676 21.4724 14.9765 21.3196 14.9438 21.15C14.8005 20.4754 14.43 19.8705 13.8941 19.4365C13.3583 19.0025 12.6896 18.7657 12 18.7657C11.3104 18.7657 10.6417 19.0025 10.1059 19.4365C9.57002 19.8705 9.19948 20.4754 9.05625 21.15C9.02346 21.3196 8.93242 21.4724 8.79889 21.5819C8.66535 21.6915 8.49773 21.7509 8.325 21.75L6 21.75C5.80109 21.75 5.61032 21.671 5.46967 21.5303C5.32902 21.3897 5.25 21.1989 5.25 21L5.25 2.99999C5.25 2.80108 5.32902 2.61031 5.46967 2.46966C5.61032 2.32901 5.80109 2.24999 6 2.24999L8.325 2.24999C8.49773 2.24903 8.66535 2.30848 8.79889 2.41804C8.93242 2.52761 9.02346 2.6804 9.05625 2.84999C9.19947 3.52454 9.57002 4.12944 10.1059 4.56347C10.6417 4.9975 11.3104 5.23432 12 5.23432C12.6896 5.23432 13.3583 4.9975 13.8941 4.56347C14.43 4.12944 14.8005 3.52454 14.9437 2.84999C14.9765 2.6804 15.0676 2.52761 15.2011 2.41804C15.3346 2.30848 15.5023 2.24903 15.675 2.24999L18 2.24999C18.1989 2.24999 18.3897 2.32901 18.5303 2.46966C18.671 2.61031 18.75 2.80108 18.75 2.99999L18.75 21C18.75 21.1989 18.671 21.3897 18.5303 21.5303C18.3897 21.671 18.1989 21.75 18 21.75L15.675 21.75Z" stroke="url(#paint3_radial_831_1841)" stroke-width="1.5" stroke-linecap="round" stroke-linejoin="round"/>
<defs>
<radialGradient id="paint0_angular_831_1841" cx="0" cy="0" r="1" gradientUnits="userSpaceOnUse" gradientTransform="translate(12 14.5) rotate(-90) scale(0.5 6.75)">
<stop stop-color="#E35555"/>
<stop offset="0.501936" stop-color="#3A0202"/>
<stop offset="0.502917" stop-color="#7A55E3"/>
<stop offset="0.99984" stop-color="#0E012B"/>
</radialGradient>
<radialGradient id="paint1_radial_831_1841" cx="0" cy="0" r="1" gradientUnits="userSpaceOnUse" gradientTransform="translate(12 14) rotate(89.9998) scale(1 13.095)">
<stop offset="0.13034" stop-color="#F9E3B0"/>
<stop offset="0.416676" stop-color="#FFBAAB"/>
<stop offset="0.870611" stop-color="#B4BAEC"/>
</radialGradient>
<radialGradient id="paint2_angular_831_1841" cx="0" cy="0" r="1" gradientUnits="userSpaceOnUse" gradientTransform="translate(12 12) rotate(-90) scale(9.75001 6.75)">
<stop stop-color="#E35555"/>
<stop offset="0.501936" stop-color="#3A0202"/>
<stop offset="0.502917" stop-color="#7A55E3"/>
<stop offset="0.99984" stop-color="#0E012B"/>
</radialGradient>
<radialGradient id="paint3_radial_831_1841" cx="0" cy="0" r="1" gradientUnits="userSpaceOnUse" gradientTransform="translate(12 2.24998) rotate(90) scale(19.5 13.095)">
<stop offset="0.13034" stop-color="#F9E3B0"/>
<stop offset="0.416676" stop-color="#FFBAAB"/>
<stop offset="0.870611" stop-color="#B4BAEC"/>
</radialGradient>
</defs>
</svg>
