<svg xmlns="http://www.w3.org/2000/svg" width="19" height="24" fill="none"><path fill="#fff" d="M9.157 23.997c-2.17 0-4.337.008-6.506-.003-1.338-.006-2.376-.883-2.613-2.188a3.39 3.39 0 0 1-.037-.602v-11.19C0 8.323 1.1 7.22 2.781 7.219c.708 0 1.416-.003 2.123 0 .56.002.944.36.946.874.001.514-.384.881-.938.883-.744.004-1.488-.001-2.232.002-.582.002-.938.353-.938.937-.002 3.795-.002 7.588 0 11.382 0 .59.347.939.934.94 4.319.002 8.638.002 12.956 0 .586 0 .934-.35.934-.94.002-3.794.002-7.587 0-11.382 0-.587-.353-.935-.937-.937-.735-.003-1.47 0-2.205-.002-.577-.001-.967-.36-.966-.884.002-.528.383-.873.972-.874.735-.002 1.47-.004 2.204 0 1.54.008 2.669 1.129 2.673 2.686.008 3.803.008 7.606 0 11.409-.004 1.558-1.123 2.675-2.675 2.68-2.16.01-4.318.003-6.478.003l.002.002Z"/><path fill="#fff" d="M8.316 3.025c-.119.113-.186.174-.249.237-.706.712-1.409 1.427-2.118 2.135-.382.381-.912.395-1.263.048-.363-.36-.353-.898.038-1.295A1181.41 1181.41 0 0 1 8.534.303c.4-.403.902-.404 1.303-.002a870.671 870.671 0 0 1 3.829 3.866c.376.382.377.925.022 1.276-.35.349-.884.335-1.264-.045-.708-.709-1.41-1.424-2.117-2.137-.062-.062-.128-.12-.249-.234V14.34c0 .128 0 .258-.018.384a.861.861 0 0 1-1.711-.032c-.013-.127-.011-.256-.011-.384V3.025h-.002Z"/></svg>