<svg width="40" height="40" viewBox="0 0 40 40" fill="none" xmlns="http://www.w3.org/2000/svg">
<g clip-path="url(#clip0_28_18)">
<g clip-path="url(#clip1_28_18)">
<path d="M24.9562 28.9813C25.2026 28.8181 25.5438 28.9228 25.6449 29.1927L29.476 39.4161C29.5992 39.7449 29.2888 40.0719 28.9349 39.9861L14.8293 36.5673C14.4499 36.4753 14.36 35.9989 14.6818 35.7858L24.9562 28.9813Z" fill="white"/>
<path d="M27.4306 26.7247C27.4129 26.6775 27.4039 26.6277 27.4039 26.5776V16.2741C27.4039 15.9827 27.1109 15.7732 26.8187 15.8558L14.7318 19.273C14.4397 19.3556 14.1467 19.1461 14.1467 18.8547V12.1958C14.1467 12.0597 14.2131 11.9314 14.3263 11.8489L30.0771 0.36593C30.296 0.206337 30.6117 0.267275 30.7488 0.495592L40.2638 16.3415C40.3312 16.4538 40.343 16.5889 40.296 16.7103L32.2851 37.4043C32.1373 37.7861 31.5719 37.7832 31.4284 37.3999L27.4306 26.7247Z" fill="white"/>
<path d="M10.1136 1.25901C10.1896 1.18775 10.2894 1.1442 10.3955 1.13592L24.933 0.00162366C25.3871 -0.0338079 25.6087 0.519633 25.2461 0.783536L12.8551 9.8014C12.7404 9.88487 12.5912 9.91155 12.4527 9.87337L4.29316 7.62322C3.95754 7.53066 3.85089 7.12624 4.10045 6.89244L10.1136 1.25901Z" fill="white"/>
<path d="M2.02185 9.88742C2.05661 9.62136 2.33167 9.44801 2.6009 9.52248L11.2485 11.9145C11.4436 11.9684 11.5778 12.1392 11.5778 12.3335V22.0181C11.5778 22.3096 11.8711 22.5191 12.1633 22.4363L24.1663 19.0343C24.4585 18.9515 24.7518 19.161 24.7518 19.4525V25.604C24.7518 25.7468 24.6786 25.8806 24.556 25.9622L11.0931 34.9145C10.9175 35.0313 10.6807 35.0156 10.5236 34.8769L0.146663 25.7115C0.0385817 25.6161 -0.0147187 25.4766 0.00352446 25.337L2.02185 9.88742Z" fill="white"/>
</g>
</g>
<defs>
<clipPath id="clip0_28_18">
<rect width="40" height="40" fill="white"/>
</clipPath>
<clipPath id="clip1_28_18">
<rect width="194" height="40" fill="white"/>
</clipPath>
</defs>
</svg>
