<svg width="42" height="36" viewBox="0 0 42 36" fill="none" xmlns="http://www.w3.org/2000/svg">
<path d="M39.2 0.899991L2.525 15.075C0.0500022 15.975 0.0500022 17.55 2.075 18L11.3 20.925L14.9 31.725C15.35 32.85 15.125 33.3 16.25 33.3C17.15 33.3 17.6 32.85 18.05 32.4C18.275 32.175 20.3 30.15 22.55 27.9L32 34.875C33.8 35.775 34.925 35.325 35.375 33.3L41.675 3.82499C42.35 1.34999 40.775 -9.11951e-06 39.2 0.899991ZM34.475 7.64999L16.925 23.625L16.25 31.05L12.65 20.25L33.35 7.19999C34.25 6.52499 35.15 6.97499 34.475 7.64999Z" fill="currentColor"/>
</svg>
