<svg viewBox="0 0 52 52" fill="none" xmlns="http://www.w3.org/2000/svg">
<path fill-rule="evenodd" clip-rule="evenodd" d="M39.832 47.5142C40.5296 48.0158 41.4288 48.1412 42.2304 47.8332C43.0321 47.523 43.6214 46.8278 43.799 45.9852C45.6818 37.0004 50.2491 14.2589 51.9628 6.08593C52.0928 5.46993 51.8762 4.82973 51.3995 4.41833C50.9229 4.00693 50.2621 3.88813 49.6727 4.11033C40.5881 7.52473 12.6106 18.1837 1.17517 22.4803C0.449352 22.7531 -0.0229708 23.4615 0.000861997 24.2381C0.0268614 25.0169 0.542516 25.6923 1.28567 25.919C6.41405 27.4766 13.1457 29.6436 13.1457 29.6436C13.1457 29.6436 16.2917 39.2906 17.9318 44.1966C18.1376 44.8126 18.6121 45.2966 19.2383 45.4638C19.8622 45.6288 20.5296 45.455 20.9954 45.0084C23.63 42.4828 27.7032 38.5778 27.7032 38.5778C27.7032 38.5778 35.4424 44.3396 39.832 47.5142ZM15.9775 28.4248L19.6152 40.6084L20.4234 32.893C20.4234 32.893 34.4782 20.0207 42.4904 12.6837C42.7244 12.4681 42.7569 12.1073 42.5619 11.8543C42.3691 11.6013 42.0137 11.5419 41.7472 11.7135C32.4611 17.7349 15.9775 28.4248 15.9775 28.4248Z" fill="currentColor"/>
</svg>
