<svg xmlns="http://www.w3.org/2000/svg" width="24" height="24"  fill="none"><path stroke="#fff" stroke-linecap="round" stroke-linejoin="round" stroke-width="1.846" d="M3 9.75h4.5v9.75H3a.75.75 0 0 1-.75-.75V10.5A.75.75 0 0 1 3 9.75v0Z"/><path stroke="url(#a)" stroke-linecap="round" stroke-linejoin="round" stroke-width="1.846" d="M3 9.75h4.5v9.75H3a.75.75 0 0 1-.75-.75V10.5A.75.75 0 0 1 3 9.75v0Z"/><path stroke="url(#b)" stroke-linecap="round" stroke-linejoin="round" stroke-width="1.846" d="M3 9.75h4.5v9.75H3a.75.75 0 0 1-.75-.75V10.5A.75.75 0 0 1 3 9.75v0Z"/><path stroke="#fff" stroke-linecap="round" stroke-linejoin="round" stroke-width="1.846" d="m7.5 9.75 3.75-7.5a3 3 0 0 1 3 3V7.5h5.803a1.49 1.49 0 0 1 1.481 1.688l-1.125 9a1.5 1.5 0 0 1-1.48 1.312H7.5"/><path stroke="url(#c)" stroke-linecap="round" stroke-linejoin="round" stroke-width="1.846" d="m7.5 9.75 3.75-7.5a3 3 0 0 1 3 3V7.5h5.803a1.49 1.49 0 0 1 1.481 1.688l-1.125 9a1.5 1.5 0 0 1-1.48 1.312H7.5"/><path stroke="url(#d)" stroke-linecap="round" stroke-linejoin="round" stroke-width="1.846" d="m7.5 9.75 3.75-7.5a3 3 0 0 1 3 3V7.5h5.803a1.49 1.49 0 0 1 1.481 1.688l-1.125 9a1.5 1.5 0 0 1-1.48 1.312H7.5"/><defs><radialGradient id="a" cx="0" cy="0" r="1" gradientTransform="matrix(2.625 0 0 4.875 4.875 14.625)" gradientUnits="userSpaceOnUse"><stop stop-color="#E35555"/><stop offset=".502" stop-color="#3A0202"/><stop offset=".503" stop-color="#7A55E3"/><stop offset="1" stop-color="#0E012B"/></radialGradient><radialGradient id="b" cx="0" cy="0" r="1" gradientTransform="matrix(-5.25 0 0 -9.4575 7.5 14.625)" gradientUnits="userSpaceOnUse"><stop offset=".13" stop-color="#F9E3B0"/><stop offset=".417" stop-color="#FFBAAB"/><stop offset=".871" stop-color="#B4BAEC"/></radialGradient><radialGradient id="c" cx="0" cy="0" r="1" gradientTransform="matrix(7.02372 0 0 8.625 14.524 10.875)" gradientUnits="userSpaceOnUse"><stop stop-color="#E35555"/><stop offset=".502" stop-color="#3A0202"/><stop offset=".503" stop-color="#7A55E3"/><stop offset="1" stop-color="#0E012B"/></radialGradient><radialGradient id="d" cx="0" cy="0" r="1" gradientTransform="matrix(-14.0474 0 0 -16.7325 21.547 10.875)" gradientUnits="userSpaceOnUse"><stop offset=".13" stop-color="#F9E3B0"/><stop offset=".417" stop-color="#FFBAAB"/><stop offset=".871" stop-color="#B4BAEC"/></radialGradient></defs></svg>