<svg width="343" height="190" viewBox="0 0 343 190" fill="none" xmlns="http://www.w3.org/2000/svg">
<path d="M171.055 146.11C199.252 146.11 222.11 123.252 222.11 95.0551C222.11 66.8581 199.252 44 171.055 44C142.858 44 120 66.8581 120 95.0551C120 123.252 142.858 146.11 171.055 146.11Z" fill="#1D1018"/>
<path d="M167.599 96.2401C180.275 89.9918 186.697 76.7611 181.943 66.6885C177.188 56.616 163.057 53.5159 150.38 59.7642C137.704 66.0126 131.281 79.2433 136.036 89.3158C140.791 99.3884 154.922 102.488 167.599 96.2401Z" fill="white"/>
<path fill-rule="evenodd" clip-rule="evenodd" d="M162.612 71.8173C164.532 72.5058 165.988 73.8914 166.569 75.8542C167.803 80.03 164.598 85.2258 159.409 87.4602C154.219 89.6945 149.013 88.1208 147.779 83.945C146.945 81.1248 148.138 77.8384 150.599 75.3154C149.611 74.7252 148.874 73.8571 148.527 72.7474C147.529 69.5552 150.125 65.5846 154.326 63.8762C158.528 62.1678 162.744 63.3716 163.743 66.5617C164.271 68.2466 163.796 70.1474 162.614 71.8173H162.612ZM155.156 66.7499C156.644 66.1704 158.119 66.8354 158.451 68.2338C158.784 69.6321 157.848 71.2336 156.36 71.8131C154.871 72.3925 153.396 71.7275 153.065 70.3292C152.731 68.9308 153.668 67.3293 155.156 66.7499ZM155.705 76.2262C157.647 75.4458 159.639 76.192 160.155 77.8919C160.67 79.5917 159.513 81.6037 157.57 82.382C155.628 83.1624 153.635 82.4162 153.12 80.7164C152.605 79.0165 153.762 77.0067 155.703 76.2262H155.705Z" fill="#1D1018"/>
</svg>
