<svg width="343" height="190" viewBox="0 0 343 190" fill="none" xmlns="http://www.w3.org/2000/svg">
<path d="M176.499 146.11C204.696 146.11 227.555 123.252 227.555 95.0551C227.555 66.8581 204.696 44 176.499 44C148.302 44 125.444 66.8581 125.444 95.0551C125.444 123.252 148.302 146.11 176.499 146.11Z" fill="#1D1018" stroke="white" stroke-width="5"/>
<path d="M173.043 96.2404C185.72 89.992 192.142 76.7613 187.387 66.6888C182.632 56.6162 168.501 53.5161 155.825 59.7645C143.148 66.0128 136.726 79.2435 141.48 89.3161C146.235 99.3886 160.366 102.489 173.043 96.2404Z" fill="white"/>
<path fill-rule="evenodd" clip-rule="evenodd" d="M168.056 71.8176C169.976 72.5061 171.432 73.8916 172.013 75.8544C173.247 80.0303 170.042 85.226 164.853 87.4604C159.663 89.6948 154.457 88.1211 153.223 83.9452C152.389 81.125 153.582 77.8387 156.044 75.3156C155.056 74.7255 154.318 73.8574 153.972 72.7477C152.973 69.5554 155.569 65.5848 159.77 63.8764C163.972 62.168 168.188 63.3718 169.187 66.562C169.715 68.2468 169.24 70.1477 168.058 71.8176H168.056ZM160.6 66.7501C162.088 66.1707 163.563 66.8357 163.895 68.234C164.228 69.6324 163.292 71.2339 161.804 71.8133C160.316 72.3927 158.84 71.7278 158.509 70.3294C158.175 68.9311 159.112 67.3296 160.6 66.7501ZM161.149 76.2265C163.091 75.446 165.084 76.1923 165.599 77.8921C166.114 79.5919 164.958 81.604 163.014 82.3823C161.072 83.1627 159.08 82.4165 158.564 80.7166C158.049 79.0168 159.206 77.0069 161.147 76.2265H161.149Z" fill="#1D1018"/>
</svg>
