<svg width="343" height="190" viewBox="0 0 343 190" fill="none" xmlns="http://www.w3.org/2000/svg">
<path d="M235.181 116.741V72.5338H243.145L244.03 76.9546H244.472C245.475 75.9525 246.567 75.0684 247.746 74.3021C250.578 72.5338 253.763 71.6497 257.303 71.6497C262.671 71.6497 266.948 73.3295 270.133 76.6893C273.378 79.9901 275 84.4993 275 90.2168V116.741H266.151V90.2168C266.151 87.3286 265.119 84.8529 263.054 82.7899C261.049 80.668 258.542 79.607 255.533 79.607C252.289 79.607 249.546 80.668 247.304 82.7899C245.121 84.8529 244.03 87.3286 244.03 90.2168V116.741H235.181Z" fill="white"/>
<path d="M117.123 116.741V72.5338H125.087L125.972 76.9546H126.414C127.417 75.9525 128.509 75.0684 129.688 74.3021C132.52 72.5338 135.705 71.6497 139.245 71.6497C144.613 71.6497 148.89 73.3295 152.075 76.6893C155.32 79.9901 156.942 84.4993 156.942 90.2168V116.741H148.093V90.2168C148.093 87.3286 147.061 84.8529 144.996 82.7899C142.991 80.668 140.484 79.607 137.475 79.607C134.231 79.607 131.488 80.668 129.246 82.7899C127.063 84.8529 125.972 87.3286 125.972 90.2168V116.741H117.123Z" fill="white"/>
<path d="M98.5276 116.741L97.6427 111.878H97.2003C96.3154 112.998 95.2536 113.971 94.0148 114.796C91.1833 116.682 87.8208 117.625 83.9274 117.625C79.0902 117.625 75.2263 116.358 72.3358 113.824C69.4453 111.289 68 107.988 68 103.921C68 99.3825 69.5043 95.8164 72.5128 93.2229C75.5803 90.6294 80.1225 89.3326 86.1396 89.3326H97.2003V88.4485C97.2003 85.5603 96.3744 83.291 94.7227 81.6405C93.071 79.9901 90.7998 79.1649 87.9093 79.1649C85.0777 79.1649 82.8951 79.8133 81.3613 81.1101C79.8276 82.3479 78.9132 83.7625 78.6183 85.354H69.7697C70.0057 81.4637 71.7459 78.2218 74.9904 75.6283C78.2348 72.9759 82.5412 71.6497 87.9093 71.6497C93.6314 71.6497 98.0852 73.1527 101.271 76.1588C104.456 79.1649 106.049 83.2615 106.049 88.4485V116.741H98.5276ZM97.2003 98.1741V96.4058H86.582C83.3375 96.4058 80.8894 97.0542 79.2377 98.351C77.6449 99.6477 76.8486 101.357 76.8486 103.479C76.8486 105.542 77.527 107.163 78.8837 108.342C80.2405 109.521 82.2167 110.11 84.8123 110.11C88.8236 110.11 91.8911 109.079 94.0148 107.016C96.1385 104.894 97.2003 101.946 97.2003 98.1741Z" fill="white"/>
<path fill-rule="evenodd" clip-rule="evenodd" d="M222.838 81.242C228.572 93.389 220.827 109.345 205.54 116.88C190.252 124.415 173.211 120.676 167.477 108.529C161.743 96.3824 169.488 80.4269 184.775 72.8917C200.063 65.3565 217.104 69.0951 222.838 81.242ZM204.298 92.2961C203.597 89.929 201.841 88.2581 199.526 87.4279H199.528C200.954 85.414 201.526 83.1217 200.89 81.0899C199.685 77.2427 194.601 75.791 189.534 77.8512C184.467 79.9115 181.337 84.6998 182.541 88.5495C182.959 89.8878 183.848 90.9346 185.039 91.6463C182.072 94.6889 180.633 98.6521 181.638 102.053C183.126 107.089 189.405 108.987 195.663 106.292C201.921 103.598 205.786 97.3319 204.298 92.2961ZM194.508 83.1063C194.108 81.4199 192.329 80.618 190.534 81.3168C188.74 82.0155 187.61 83.9469 188.012 85.6332C188.412 87.3196 190.191 88.1215 191.986 87.4227C193.781 86.7239 194.91 84.7926 194.508 83.1063ZM196.563 94.7534C195.941 92.7035 193.538 91.8036 191.197 92.7447H191.194C188.853 93.6859 187.458 96.1097 188.08 98.1596C188.701 100.21 191.104 101.109 193.445 100.168C195.789 99.2297 197.184 96.8033 196.563 94.7534Z" fill="white"/>
</svg>
